# xmcd CD database file
#
# Track frame offsets:
#	150
#	16498
#	37320
#	65854
#	83208
#	97491
#	115638
#	133659
#	149264
#	169376
#	200560
#	219330
#	234490
#	249532
#
# Disc length: 3551 seconds
#
# Revision: 0
# Processed by: cddbd v1.4PL0 Copyright (c) Steve Scherf et al.
# Submitted via: CDex 1.50beta10
#
DISCID=d90ddd0e
DTITLE=Nina Simone - The Jazz Singer
DYEAR=2001
DGENRE=Jazz
TTITLE0=My baby just cares for me
TTITLE1=Ain't got no/I got life
TTITLE2=To be young, gifted and black
TTITLE3=Don't let me be misunderstood
TTITLE4=He's got the whole world in his hands
TTITLE5=Mood indigo
TTITLE6=For all we know
TTITLE7=I want a little sugar in my bowl
TTITLE8=You must have another lover
TTITLE9=The house of the rising sun
TTITLE10=I loves you Porgy
TTITLE11=Love me or leave me
TTITLE12=Saratoga
TTITLE13=You'll never walk alone
EXTD=YEAR: 2001
EXTT0=
EXTT1=
EXTT2=
EXTT3=
EXTT4=
EXTT5=
EXTT6=
EXTT7=
EXTT8=
EXTT9=
EXTT10=
EXTT11=
EXTT12=
EXTT13=
PLAYORDER=
